<?xml version="1.0" encoding="UTF-8"?>
<svg id="Layer_1" data-name="Layer 1" xmlns="http://www.w3.org/2000/svg" viewBox="0 0 410.02 487.6">
  <defs>
    <style>
      .cls-1 {
        stroke-width: 0px;
      }
    </style>
  </defs>
  <path class="cls-1" d="M294.95,365.45c0,10.71,0,20.84,0,30.97,0,3.17.29,6.37-.07,9.49-.52,4.64,1.65,5.6,5.76,5.59,26.63-.12,53.25-.05,79.88-.06,6.88,0,6.88-.03,6.9-6.85,0-2.13,0-4.27,0-7.01-2.43.14-4.37.05-6.25.39-17.52,3.14-34.97-8.68-38.42-26.09-3.76-18.93,7.61-36.57,25.99-40.3,21.92-4.45,41.11,11.2,41.16,33.63.04,20-.14,40,.11,59.99.06,4.91-1.9,7.08-6.38,7.66-1.48.19-2.97.32-4.46.33-26.83.14-53.65.33-80.48.35-19.99.01-39.98-.22-59.97-.33-5.75-.03-11.49,0-18.39,0,4.78,8.65,8.63,16.35,13.2,23.59,2.57,4.07,1.69,6.36-1.63,9.14-4.59,3.84-8.83,8.09-13.73,12.64-1.64-2.54-3.23-4.76-4.57-7.13-6.37-11.3-12.77-22.59-18.93-34.01-1.62-3.01-3.53-4.31-7-4.29-37.47.21-74.95.36-112.42.4-19.32.02-38.65-.01-57.97-.38-16.95-.32-31.31-13.69-33.14-30.3-1.85-16.76,9.09-32.89,25.69-36.68,6.07-1.39,12.57-1.09,18.88-1.23,8.14-.19,15.74-1.86,22.88-7.67.14,2.5.31,4.23.32,5.96.02,14.33.16,28.67-.07,43-.06,4.02,1.32,5.27,5.14,5.22,11.46-.14,22.91-.15,34.37,0,3.99.06,5.63-1.14,5.51-5.43-.28-10.49.02-21-.18-31.49-.06-3.29,1.11-4.89,4.25-5.48,5.82-1.09,11.61-2.33,18.02-3.63,0,12.42,0,24.22,0,36.02,0,2-.42,4.12.13,5.96.45,1.49,2.04,3.76,3.15,3.77,18.12.19,36.24.08,54.36,0,.62,0,1.23-.43,2.45-.88-1.69-3.18-3.25-6.22-4.91-9.19-4.29-7.7-8.83-15.26-12.87-23.09-1.78-3.44-3.89-5.2-7.76-4.48-3.85.71-6.02-.83-7.57-4.5-2.38-5.62-5.36-10.98-8.57-17.41,8.05,0,15.38.83,22.44-.19,11.4-1.65,17.56,2.68,22.41,13.05,6.89,14.71,15.76,28.49,23.56,42.79,1.69,3.09,3.74,4.22,7.12,4.18,11.45-.13,22.91-.16,34.37,0,3.99.06,5.64-1.13,5.52-5.42-.27-10.49.03-21-.18-31.49-.06-3.3,1.09-4.87,4.24-5.46,5.84-1.09,11.64-2.35,18.1-3.67ZM37.8,387.18c-6.47.09-11.98,5.78-11.87,12.27.1,6.28,6.19,12.15,12.37,11.93,6.51-.24,11.86-5.91,11.75-12.46-.12-6.73-5.44-11.84-12.24-11.74ZM388.14,364.41c-.1-6.38-5.88-11.98-12.33-11.94-6.3.03-11.97,5.95-11.81,12.33.16,6.52,5.76,11.95,12.24,11.87,6.44-.08,12.01-5.82,11.91-12.25Z"/>
  <path class="cls-1" d="M53.26,186.84c10.24-16.98,19.74-32.74,29.24-48.49.51.27,1.02.55,1.53.82-3.72,8.33-7.45,16.65-11.52,25.77,2.86.18,4.78.39,6.69.4,31.16.03,62.31-.04,93.47.12,5.28.03,10.68.45,15.8,1.65,14.31,3.34,23.82,13.95,25.3,28.63,1.02,10.06.96,20.24,1.48,30.35.2,3.88-1.58,5.96-5.3,6.48-1.96.28-3.95.57-5.92.57-56.15.04-112.29.04-168.44.05-2.16,0-4.31,0-7.57,0,2.33-4.05,4.8-7.48,6.39-11.28,3.5-8.34,8.95-10.94,18.34-10.8,44.47.66,88.96.3,133.45.29,7.41,0,7.85-.55,6.34-7.69-2.83-13.39-7.56-16.84-23.7-16.86-35.82-.05-71.64-.02-107.46-.02-2.29,0-4.58,0-8.1,0Z"/>
  <path class="cls-1" d="M285.2,265.75c11.91,1.36,24.55,5.49,34.45-4.58,7.99-8.12,4.98-18.99,5.37-29.72-2.14.41-3.67.68-5.2,1-17.5,3.75-35.88-8.24-39.64-25.88-3.94-18.48,7.6-37.22,25.58-40.58,6.64-1.24,13.58-1.09,20.39-1.24,7.4-.16,14.03-2.22,20.12-7.28.32,1.16.77,2,.77,2.84,0,28.48.13,56.96-.15,85.44-.19,19.34-13.35,29.71-30.95,31.34-10.37.96-20.14-1.55-28.52-8.2-.77-.61-1.45-1.35-2.11-2.09-.16-.19-.08-.6-.12-1.06ZM325.23,198.84c-.1-6.74-5.42-11.85-12.2-11.71-6.41.13-12.06,6-11.88,12.34.17,6.11,6.44,12.09,12.46,11.88,6.54-.22,11.71-5.79,11.62-12.51Z"/>
  <path class="cls-1" d="M359.38,55.22c7.53-1.66,14.59-3.22,22.29-4.91,0,2.04,0,3.47,0,4.9-.03,51.8.13,103.59-.25,155.38-.07,9.84,3.78,14.6,14.79,12.29,1.76-.37,3.6-.41,6.56-.73-1.29,1.85-1.93,3.28-3,4.23-8.09,7.17-17.65,9.22-27.83,6.42-8.66-2.37-12.54-8.8-12.55-18.73-.03-36.14-.01-72.28-.01-108.42,0-16.64,0-33.29,0-50.44Z"/>
  <path class="cls-1" d="M204.19,269.78c5.96.7,11.04,1.71,16.14,1.82,16.86.36,24.57-7.3,24.6-24.09.03-23.84.16-47.67-.14-71.5-.06-4.97,1.82-6.7,6.27-7.38,5.06-.77,10.05-2.01,15.26-3.08.28.88.63,1.47.63,2.06-.09,27.83.18,55.67-.43,83.49-.52,23.56-21.97,32.33-39.49,29.98-8.36-1.12-16.58-3.47-22.84-11.29Z"/>
  <path class="cls-1" d="M50.13,325.01c-.2-2.47-.42-3.9-.42-5.34-.02-19.96.08-39.93-.1-59.89-.03-3.57,1.27-5.14,4.52-5.76,5.67-1.08,11.32-2.27,17.38-3.5.16,1.64.4,2.9.4,4.16.02,18.47-.06,36.93.08,55.4.03,3.43-.9,5.43-4.27,6.79-5.76,2.32-11.3,5.2-17.59,8.15Z"/>
  <path class="cls-1" d="M377.94,272.51c11.6-.03,20.21,8.57,20.2,20.15-.01,11.54-8.7,20.14-20.28,20.07-11.34-.06-19.86-8.57-19.94-19.91-.08-11.63,8.45-20.29,20.03-20.32Z"/>
  <path class="cls-1" d="M307.98,323.56c.02,10.18-7.75,18-17.91,18.02-10.2.02-17.99-7.73-18-17.91-.02-10.23,7.7-17.98,17.9-18,10.2-.02,18,7.73,18.02,17.9Z"/>
  <path class="cls-1" d="M243.83,342.58c-10.15-.06-17.84-7.9-17.78-18.14.06-10.17,7.88-17.83,18.13-17.77,10.18.06,17.85,7.88,17.78,18.12-.07,10.14-7.93,17.86-18.14,17.8Z"/>
  <path class="cls-1" d="M136.11,451.68c10.17.04,17.89,7.84,17.85,18.06-.04,10.16-7.87,17.9-18.07,17.86-10.15-.04-17.89-7.87-17.85-18.07.04-10.17,7.84-17.88,18.06-17.84Z"/>
  <path class="cls-1" d="M92.98,451.06c9.61-.02,17.49,7.78,17.6,17.41.11,9.78-8.01,17.86-17.79,17.7-9.67-.16-17.39-8.01-17.33-17.65.06-9.63,7.91-17.45,17.53-17.47Z"/>
  <path class="cls-1" d="M344.29,37.54c3.09-5.98,4.84-11.89,12.78-10.46.84.15,2.6-2.24,3.19-3.75,2.26-5.8,3.25-12.33,6.5-17.46,5.18-8.19,20.2-7.71,26.46.79-3.09-.42-5.56-.95-8.05-1.05-6.34-.26-10.85,3.63-11.23,9.47-.53,8.15,1.93,11.27,9.64,11.93,3.31.28,6.66.27,9.99.32,3.15.05,6.31.01,9.49.01-1.48,7.54-4.51,10.2-11.51,10.2-15.48,0-30.96,0-47.24,0Z"/>
  <path class="cls-1" d="M119.65,118.52h-14.03c2.89-8.63,1.15-17.43,1.19-26.13,0-.66-1.75-2.01-2.38-1.85-1.45.37-3.81,1.4-3.87,2.3-.61,8.46-1.52,17,.63,25.52h-14.45c3.7-4.27,3.7-40.66-.4-44.96,4.56-.28,8.73-.54,13.45-.83v17.84c1.77-.97,2.85-1.65,4-2.17,8.21-3.69,13.93-.14,14.12,8.79.1,4.99-.13,9.99.11,14.98.1,2.08,1.01,4.13,1.64,6.51Z"/>
  <path class="cls-1" d="M169.62,37.02c-.54-5.24-1.02-9.88-1.51-14.69,2.8-.16,7.05-.41,11.89-.69,0,11.98-.1,23.77.06,35.55.05,3.43.85,6.85,1.31,10.28-3.54-1.6-8.69,2.93-12.95-1.52-.05-.06-.94.79-1.51,1.1-5.49,3.02-12.12,1.17-14.81-4.55-3.06-6.49-3.16-13.29-.12-19.82,2.66-5.7,7.34-7.2,17.63-5.66ZM169.18,38.94c-4.29-1.52-6.61.43-6.87,3.49-.54,6.39-.51,12.85-.2,19.26.06,1.28,2.44,2.44,3.75,3.66,1.11-1.46,3.1-2.88,3.17-4.39.33-7.28.15-14.57.15-22.01Z"/>
  <path class="cls-1" d="M206.12,73.32c4.52-.24,8.48-.45,12.9-.68v16.91c3.56-.88,6.65-2.13,9.8-2.31,5.54-.31,7.97,2.12,8.19,7.69.22,5.66-.06,11.33.2,16.98.1,2.08,1.12,4.13,1.76,6.36h-13.69c.39-2.81,1.06-5.76,1.16-8.73.18-5.16.18-10.33-.11-15.48-.07-1.26-1.74-3.52-2.42-3.43-1.51.2-4.03,1.55-4.08,2.53-.42,8.43-2.14,17.01,1.25,25.32h-14.75c3.49-4.99,3.51-40.1-.22-45.18Z"/>
  <path class="cls-1" d="M41.12,37.39h15.27c-2.66,6.48,2.5,11.4,2.78,17.18.44,0,.89,0,1.33-.01,1.53-5.68,3.07-11.36,4.56-16.9,4.95-1.81,7.05.19,8.14,4.77,1.18,4.95,3.03,9.74,4.74,15.09,5.18-10.9,5.02-15.62-.67-20.1h9.33c-3.32,9.89-6.66,19.84-9.99,29.77-4.26,1.54-6.37-.17-7.52-4.33-1.27-4.62-3.05-9.09-5.65-13.75-1.65,6.05-3.3,12.11-4.9,17.97-4.23,1.5-6.34.23-7.54-3.88-1.86-6.38-4.19-12.63-6.5-18.87-.87-2.36-2.22-4.55-3.41-6.95Z"/>
  <path class="cls-1" d="M.33,77h30.61v13.02c-.25.09-.5.17-.76.26-.66-1.54-1.08-3.24-2.03-4.57-1.7-2.37-3.3-5.21-5.68-6.62-4.81-2.86-7.81-.84-7.86,4.69-.04,4.14,0,8.28,0,12.61,5.53.63,6.87-3.49,9.52-7.78v16.9c-2.45-2.88-3.6-7.72-9.39-6.79,0,4.92-.44,9.91.22,14.76.26,1.88,3.04,3.41,4.46,4.88H.2c.75-2.06,2.19-4.26,2.25-6.5.26-9.49.24-18.99,0-28.48-.05-2.13-1.37-4.22-2.12-6.37Z"/>
  <path class="cls-1" d="M71.81,320.97c0,8.95.81,17.15-.38,25.06-.52,3.46-4.66,7.03-8.02,9.24-3.59,2.35-8.2,3.15-13.66,5.08,0-6.11.69-11.26-.14-16.15-1.72-10.09,2.17-15.88,11.78-18.65,3.38-.98,6.52-2.83,10.43-4.57Z"/>
  <path class="cls-1" d="M40.41,67.51h-18.99c4.33-1.38,3.12-4.22,2.09-7.14-3.19-9.06-3.15-8.84-11.88-8.71-5.11.08-4.58,4.15-5.46,6.93-1.51,4.79-.64,6.21,4.07,8.78H0c2.17-4.76,4.48-9.43,6.45-14.24,3.27-8,6.2-16.13,9.56-24.09.59-1.4,2.69-3.12,3.98-3.04,1.61.11,3.91,1.6,4.52,3.07,4.28,10.27,8.16,20.71,12.27,31.06.95,2.4,2.27,4.64,3.63,7.37ZM14.57,35.89c-2.07,5.46-3.75,9.87-5.52,14.54h10.82c-1.73-4.76-3.34-9.16-5.3-14.54Z"/>
  <path class="cls-1" d="M183.44,89.3c.72.88,2.09,1.81,2.03,2.64-.15,2.24-.23,5.4-1.62,6.39-1.43,1.03-5.27.76-6.43-.47-1.19-1.26-1.22-4.78-.32-6.59,1.81-3.63,11.92-5.28,17.65-3.51,4.97,1.54,5.73,5.52,5.77,9.9.04,4.99-.09,9.99.12,14.98.07,1.6.96,3.16,1.53,4.92-5.1,2.52-8.4,2.17-12.09-1.37-2.77.99-5.29,2.35-7.95,2.72-3.57.51-6.7-.82-7.75-4.71-.98-3.64.32-6.7,3.58-8.5,2.89-1.59,6.14-2.54,9.09-4.04,4.64-2.36,3.09-6.69,2.33-10.16-.34-1.57-3.19-2.59-4.9-3.87-.35.55-.7,1.1-1.05,1.65ZM189.93,102.61c-.66-.22-1.32-.44-1.98-.66-1.04,3.01-2.35,5.98-2.94,9.08-.17.87,1.78,2.15,2.76,3.24.72-1.08,1.94-2.11,2.07-3.26.3-2.77.1-5.59.1-8.39Z"/>
  <path class="cls-1" d="M62.02,118.08c-4.17.96-8.65,2.44-12.04-1.91-2.69.98-5.2,2.34-7.85,2.73-3.56.53-6.72-.76-7.81-4.61-1.01-3.6.21-6.72,3.46-8.54,2.88-1.61,6.1-2.58,9.08-4.03,4.71-2.29,3.23-6.61,2.48-10.09-.35-1.6-3.1-2.69-4.76-4.01-.41.46-.82.91-1.23,1.37.7.96,2,1.94,1.96,2.87-.09,2.23-.1,5.4-1.46,6.4-1.42,1.05-5.24.88-6.44-.32-1.22-1.23-1.35-4.75-.49-6.58,1.76-3.72,11.57-5.41,17.57-3.65,4.96,1.46,5.9,5.3,5.89,9.76,0,4.99-.09,9.98.1,14.96.06,1.67.87,3.31,1.52,5.64ZM49.86,102.59c-4.19,1.96-6.22,5.73-4.87,9.33.37.98,1.75,1.58,2.66,2.36.73-.91,2.01-1.76,2.1-2.73.28-2.93.1-5.91.1-8.95Z"/>
  <path class="cls-1" d="M127.14,37.94c.75,1,1.99,1.89,1.99,2.78,0,2.24.18,5.42-1.12,6.46-1.39,1.12-5.54,1.11-6.43-.02-1.23-1.57-1.43-5.09-.48-6.97,1.82-3.62,12.21-5.17,17.7-3.32,4.92,1.66,5.56,5.63,5.53,10.04-.04,4.99-.11,9.99.08,14.98.06,1.5.92,2.97,1.49,4.68-4.45,2.71-8.28,2.32-11.95-1.41-2.83,1.04-5.35,2.44-8.02,2.83-3.34.49-6.41-.77-7.55-4.33-1.14-3.54-.14-6.78,3.11-8.67,2.85-1.66,6.06-2.68,9.08-4.05,4.78-2.18,3.4-6.42,2.92-10.02-.45-3.37-3.01-4.03-6.34-2.97ZM133.8,50.7c-4.12,2.97-5.78,6.08-4.86,10.16.22.97,1.67,1.66,2.56,2.49.77-.89,2.1-1.72,2.19-2.67.29-3.02.11-6.08.11-9.98Z"/>
  <path class="cls-1" d="M161.94,88.38h9.09c-2.8,7.9-5.59,15.77-8.37,23.65-1.38,3.91-2.63,7.88-4.1,11.75-2.14,5.63-6.83,7.57-12.43,5.24-2.73-1.13-4.54-2.95-3.48-6.16.91-2.77,5.11-4.08,8.09-2.59,3.15,1.57,3.1,3.95,1.45,6.61-.25.41-.57.79-.87,1.19,4.22.02,7.01-2.77,5.53-6.2-4.83-11.22-10.02-22.28-15.1-33.46,4.65,0,9.98,0,15.31,0-2.53,2.58-.83,8.6,5.39,19.12,4.77-9.62,4.78-14.62-.52-19.16Z"/>
  <path class="cls-1" d="M84.01,116.12c-2.02,3.21-5.85,4.07-10.25,3.07-4.53-1.04-5.2-4.71-5.27-8.53-.12-5.82.08-11.65-.18-17.46-.07-1.63-1.3-3.2-1.88-4.54.87-2.14,1.88-4.62,3.05-7.5,2.62-.6,5.81-1.34,9.43-2.17v8.41c1.82.3,3.24.54,6,1-2.56.63-3.95.97-5.82,1.43,0,7.66-.19,15.44.21,23.19.06,1.08,2.99,2.02,4.7,3.09Z"/>
  <path class="cls-1" d="M107.08,67.45h-16.94c3.69-4.51,3.79-24.94-.32-30.74,5.1,1.61,9.94-1.88,14.65,1.8,3.02-1.92,6.96-4.23,10.24-.55,1.38,1.55,1.47,5.67.35,7.57-.86,1.46-5.69,2.49-6.69,1.55-1.75-1.67-1.93-5-2.65-7.28-4.26,3.21-4.03,22.95,1.36,27.65Z"/>
  <path class="cls-1" d="M138.64,118.51h-14.6c3.38-4.68,3.36-25.63-.16-30.31,4.26-.2,8.35-.38,13.18-.6,0,7.91-.12,15.67.07,23.42.06,2.43.95,4.84,1.51,7.5Z"/>
  <path class="cls-1" d="M130.84,72.43c4.11.03,6.89,1.09,6.96,4.85.07,4.05-2.91,5.23-6.37,5.23-3.41,0-6.42-1-6.36-5.17.06-4.22,3.16-4.88,5.77-4.9Z"/>
</svg>